Coordinates
version=1
nRows=7
nColumns=40
inDegrees=yes

Units are S.I. units (second, meters, Newtons, ...)
Angles are in degrees.

endheader
time	pelvis_tilt	pelvis_list	pelvis_rotation	pelvis_tx	pelvis_ty	pelvis_tz	hip_flexion_r	hip_adduction_r	hip_rotation_r	knee_angle_r	knee_angle_r_beta	ankle_angle_r	subtalar_angle_r	mtp_angle_r	hip_flexion_l	hip_adduction_l	hip_rotation_l	knee_angle_l	knee_angle_l_beta	ankle_angle_l	subtalar_angle_l	mtp_angle_l	lumbar_extension	lumbar_bending	lumbar_rotation	arm_flex_r	arm_add_r	arm_rot_r	elbow_flex_r	pro_sup_r	wrist_flex_r	wrist_dev_r	arm_flex_l	arm_add_l	arm_rot_l	elbow_flex_l	pro_sup_l	wrist_flex_l	wrist_dev_l
     30.88000000	     -2.74598341	     -5.15733435	      0.14174943	      1.03571173	      0.93411579	      0.41320146	     28.55773028	     -4.30466203	     -4.68222595	     60.02537741	     60.02537741	      4.20510670	    -13.65074871	      0.26003917	     15.99527178	     -6.04448967	     -6.67428339	     22.61773569	     22.61773569	     11.36116601	    -12.00730261	     -1.39316159	    -11.22020225	      2.94051139	      1.24268661	      4.68587857	    -14.16574222	     -0.74552476	     32.23845097	     46.24665289	      0.00000000	      0.00000000	      7.59382995	    -14.74543480	     -2.65055379	     42.81552986	     46.27597360	      0.00000000	      0.00000000
     30.89285714	     -2.82958766	     -5.15337527	     -0.23214892	      1.03504048	      0.93450558	      0.41283739	     29.36905103	     -4.22078885	     -4.57187700	     58.10981692	     58.10981692	      4.25013146	    -13.32547633	      0.40417625	     15.58886966	     -6.05687565	     -6.99884293	     22.47203215	     22.47203215	     11.56415179	    -12.07258124	     -1.45238094	    -11.14976844	      3.00874740	      0.64574888	      3.86997112	    -14.60045732	     -0.82127930	     31.80451127	     46.26269147	      0.00000000	      0.00000000	      8.15596881	    -15.17183782	     -2.75137239	     43.09672898	     46.29595579	      0.00000000	      0.00000000
     30.90571429	     -2.71610756	     -5.39701099	     -0.61161256	      1.03471452	      0.93546952	      0.41267681	     29.62097125	     -3.90253874	     -4.75011602	     55.62938558	     55.62938558	      3.63300346	    -13.14114222	     -0.97101406	     14.62536187	     -6.38635967	     -7.63117841	     21.71436140	     21.71436140	     11.60521124	    -11.42929586	     -2.26856016	    -11.36478739	      3.33924388	      0.92551316	      3.24315781	    -14.94650818	     -1.93051450	     28.94355805	     46.44073432	      0.00000000	      0.00000000	      8.48079705	    -15.50452522	     -2.45746587	     45.30665636	     46.30903996	      0.00000000	      0.00000000
     30.91857143	     -2.77584026	     -5.45498469	     -0.96718316	      1.03415061	      0.93588757	      0.41244548	     30.11185769	     -3.75145509	     -4.81501242	     53.25592627	     53.25592627	      3.47528769	    -12.66532421	     -0.72433143	     14.06936226	     -6.43231970	     -7.90953262	     21.32022092	     21.32022092	     11.78613807	    -11.46049690	     -2.25420967	    -11.33372763	      3.48026187	      0.50964812	      2.34259040	    -15.41627639	     -2.07874634	     28.41297351	     46.46549396	      0.00000000	      0.00000000	      9.03809842	    -15.95976170	     -2.57790577	     45.73579136	     46.33283370	      0.00000000	      0.00000000
     30.93142857	     -2.82268551	     -5.42430081	     -1.33152593	      1.03361987	      0.93622874	      0.41225972	     30.45795685	     -3.66866580	     -4.86574855	     50.68024753	     50.68024753	      3.30107178	    -12.14395006	     -0.42336565	     13.54199137	     -6.39615760	     -8.24793418	     21.01124391	     21.01124391	     11.94878897	    -11.46691533	     -2.28547000	    -11.31994942	      3.51063648	      0.22938766	      1.49763904	    -15.89737170	     -2.22272180	     27.86869074	     46.49171203	      0.00000000	      0.00000000	      9.63691945	    -16.36292053	     -2.69056049	     46.28029994	     46.35680696	      0.00000000	      0.00000000
     30.94428571	     -2.55056219	     -5.51671761	     -1.72751817	      1.03342579	      0.93713830	      0.41224634	     30.20732878	     -3.45650061	     -5.06621261	     47.75848021	     47.75848021	      3.01883517	    -11.37230751	     -0.40038476	     12.39620827	     -6.48360039	     -8.74351562	     20.24296205	     20.24296205	     12.08701642	    -11.13917839	     -2.47486753	    -11.75179626	      3.66694255	      0.75826813	      0.44582185	    -16.41443537	     -2.75419094	     26.59057234	     46.57642596	      0.00000000	      0.00000000	     10.34957359	    -16.41834091	     -2.66497937	     48.09415245	     46.38536680	      0.00000000	      0.00000000
     30.95714286	     -2.57526577	     -5.51123686	     -2.06167274	      1.03313209	      0.93732093	      0.41238680	     30.16731287	     -3.31681163	     -5.28060676	     44.62636272	     44.62636272	      2.06150828	    -10.93781258	     -1.97976698	     11.75829623	     -6.46711385	     -9.07839439	     19.73008843	     19.73008843	     11.82321589	    -11.27025101	     -3.49178409	    -11.77597003	      3.68209099	      0.06312550	      0.74060685	    -15.92696464	     -7.34102330	     24.17643105	     47.01615956	      0.00000000	      0.00000000	      9.73892348	    -17.49601132	     -1.94314791	     50.96241874	     46.40976606	      0.00000000	      0.00000000
